<svg width="171" height="23" viewBox="0 0 171 23" fill="none" xmlns="http://www.w3.org/2000/svg">
<path d="M126.244 3.57128C121.162 3.61306 117.296 7.17052 117.343 11.7606C117.389 16.2611 121.499 19.8424 126.509 19.7469C131.472 19.6514 135.384 15.9149 135.259 11.3845C135.14 6.99741 131.135 3.5295 126.244 3.57128ZM126.383 23C119.385 23.0179 113.8 18.0637 113.748 11.7844C113.695 5.45744 119.49 0.151113 126.396 0.198864C133.137 0.246615 138.966 5.55294 138.992 11.6591C139.019 17.7951 133.25 22.982 126.383 23Z" fill="white"/>
<path d="M74.8888 0.31228H78.3121V9.89827H91.4632V0.407769C92.6924 0.318235 93.6705 0.240653 94.8865 0.15112V22.8686H91.5756V13.4975H78.4707V22.7791H74.8888" fill="white"/>
<path d="M170.139 1.43443C169.359 4.19801 168.269 4.69343 166.174 3.53546C165.268 3.03408 163.933 2.69982 162.955 2.90873C161.713 3.17136 159.849 3.91747 159.671 4.71133C159.446 5.76186 160.259 7.40329 161.224 8.16731C162.572 9.2238 164.488 9.67743 166.141 10.4414C170.178 12.3037 171.758 14.9659 170.661 18.004C169.643 20.8333 166.101 22.6538 162.149 22.1404C160.556 21.9375 158.95 21.4122 157.516 20.7437C155.25 19.6813 155.283 19.2814 157.226 17.2818C158.891 17.9324 160.51 18.774 162.255 19.1859C164.145 19.6335 166.114 19.353 166.887 17.4131C167.601 15.6403 166.497 14.3451 164.832 13.5035C163.22 12.6857 161.495 12.059 159.869 11.2592C156.545 9.61178 155.243 7.30182 155.904 4.40692C156.485 1.89999 159.036 -0.0697334 162.579 0.00189311C165.083 0.0556126 167.575 0.921103 170.139 1.43443Z" fill="white"/>
<path d="M47.9257 22.8746H44.0134V3.63097H35.9443V0.324213H55.9089V3.57127H47.9257" fill="white"/>
<path d="M17.1097 10.2743V13.2647H3.62818V19.6275H16.9908V22.8746H0.0925672V10.2743" fill="white"/>
<path d="M0 3.41011H17.0304V0.377932H0V3.41011Z" fill="white"/>
</svg>